<svg xmlns="http://www.w3.org/2000/svg" viewBox="0 0 417.92 72.12"><defs><style>.cls-1{fill:#19af60;}.cls-2{fill:#afbcc9;}</style></defs><title>Asset 4</title><g id="Layer_2" data-name="Layer 2"><g id="Layer_1-2" data-name="Layer 1"><path class="cls-1" d="M42.48,35.69,37.22,42.6V57.72H27.79V7.46h9.43V30.07h.44l5.83-8.35L54.07,7.46H64.73L49,28.63,65.45,57.72H54.79Z"/><path class="cls-1" d="M85.13,58.58a21.41,21.41,0,0,1-7.92-1.36,15.69,15.69,0,0,1-5.8-3.89,16.75,16.75,0,0,1-3.56-6.09,24.47,24.47,0,0,1-1.23-8,24.54,24.54,0,0,1,1.26-8.14A17.46,17.46,0,0,1,71.45,25,15.47,15.47,0,0,1,77,21.07a20.48,20.48,0,0,1,14.65,0,15.51,15.51,0,0,1,5.51,3.79,17.05,17.05,0,0,1,3.49,5.93,23,23,0,0,1,1.22,7.65v3H75.84v.93a8.75,8.75,0,0,0,2.52,6.52,9.59,9.59,0,0,0,7,2.48A11.81,11.81,0,0,0,91.35,50a12.71,12.71,0,0,0,4.14-3.71l5.26,5.23a16.2,16.2,0,0,1-5.87,5A20.47,20.47,0,0,1,85.13,58.58Zm-.65-32.11a8.31,8.31,0,0,0-6.27,2.47,9,9,0,0,0-2.37,6.53V36H92.69v-.66a9.19,9.19,0,0,0-2.2-6.45A7.74,7.74,0,0,0,84.48,26.47Z"/><path class="cls-1" d="M126.06,58.58a21.41,21.41,0,0,1-7.92-1.36,15.69,15.69,0,0,1-5.8-3.89,16.75,16.75,0,0,1-3.56-6.09,24.47,24.47,0,0,1-1.23-8,24.54,24.54,0,0,1,1.26-8.14A17.46,17.46,0,0,1,112.38,25,15.47,15.47,0,0,1,118,21.07a20.48,20.48,0,0,1,14.65,0,15.42,15.42,0,0,1,5.51,3.79,17.05,17.05,0,0,1,3.49,5.93,23,23,0,0,1,1.22,7.65v3H116.77v.93a8.75,8.75,0,0,0,2.52,6.52,9.59,9.59,0,0,0,7,2.48,11.88,11.88,0,0,0,5.95-1.4,12.78,12.78,0,0,0,4.13-3.71l5.26,5.23a16.2,16.2,0,0,1-5.87,5A20.47,20.47,0,0,1,126.06,58.58Zm-.65-32.11a8.31,8.31,0,0,0-6.27,2.47,9,9,0,0,0-2.37,6.53V36h16.85v-.66a9.19,9.19,0,0,0-2.2-6.45A7.74,7.74,0,0,0,125.41,26.47Z"/><path class="cls-1" d="M150.18,20.57h9.21v6.55h.51a13.55,13.55,0,0,1,4.14-5.4,11.11,11.11,0,0,1,6.94-2,13.93,13.93,0,0,1,5.8,1.19,11.8,11.8,0,0,1,4.5,3.6,17.23,17.23,0,0,1,2.88,6.09,32.53,32.53,0,0,1,1,8.56,32.61,32.61,0,0,1-1,8.57,17.23,17.23,0,0,1-2.88,6.09,12,12,0,0,1-4.5,3.6,13.92,13.92,0,0,1-5.8,1.18,11.11,11.11,0,0,1-6.94-2,13.62,13.62,0,0,1-4.14-5.4h-.51v21h-9.21ZM167.1,51.24a7.93,7.93,0,0,0,6.22-2.45,9.62,9.62,0,0,0,2.2-6.69V36.19a9.62,9.62,0,0,0-2.2-6.69,7.93,7.93,0,0,0-6.22-2.45,9.34,9.34,0,0,0-5.44,1.55,5.32,5.32,0,0,0-2.27,4.71V45a5.32,5.32,0,0,0,2.27,4.71A9.42,9.42,0,0,0,167.1,51.24Z"/><path class="cls-1" d="M219.44,57.72,215.91,44.9H201l-3.46,12.82h-9.5L202.16,7.46h13.1l14.19,50.26Zm-10.66-41h-.57l-5.55,20.52h11.67Z"/><path class="cls-1" d="M234.78,50.52H244V27.77h-9.21v-7.2h18.43V30.79h.57a20.47,20.47,0,0,1,1.41-3.8,12.06,12.06,0,0,1,2.3-3.27,10.89,10.89,0,0,1,3.42-2.28,12.1,12.1,0,0,1,4.82-.87h4v8.64h-7.64A8.31,8.31,0,0,0,253.21,38V50.52H266.1v7.2H234.78Z"/><path class="cls-1" d="M276.38,50.52h9.22V27.77h-9.22v-7.2h18.43V30.79h.58a20.44,20.44,0,0,1,1.4-3.8,12.09,12.09,0,0,1,2.31-3.27,10.78,10.78,0,0,1,3.42-2.28,12.1,12.1,0,0,1,4.82-.87h4v8.64h-7.64A8.32,8.32,0,0,0,294.81,38V50.52H307.7v7.2H276.38Z"/><path class="cls-1" d="M348,57.72a6.7,6.7,0,0,1-7.42-6.41h-.36a9.26,9.26,0,0,1-4,5.37,13.14,13.14,0,0,1-7.27,1.9q-5.61,0-8.93-2.95a10.42,10.42,0,0,1-3.31-8.21q0-11.22,16.49-11.23h6.55V33.74a7.36,7.36,0,0,0-1.73-5.32q-1.72-1.8-5.61-1.8A10.53,10.53,0,0,0,326.79,28a13,13,0,0,0-3.67,3.53l-5.26-4.46a13.63,13.63,0,0,1,5.58-5.22,20.5,20.5,0,0,1,10-2.13q7.35,0,11.49,3.42T349,33.31v17.5h4.39v6.91Zm-15.91-5.47a9.38,9.38,0,0,0,5.51-1.55,4.89,4.89,0,0,0,2.19-4.21v-5h-6.33q-7.56,0-7.56,4.75v1.44a3.87,3.87,0,0,0,1.65,3.39A7.84,7.84,0,0,0,332.12,52.25Z"/><path class="cls-1" d="M383.94,20.57h9.35L375.51,64.34a13.46,13.46,0,0,1-4,5.8q-2.52,2-7.13,2h-6.77v-7.2h8.86l2.81-7.56-15-36.79h9.79l5.69,15.55,4,11.81h.51l4-11.81Z"/><path class="cls-2" d="M0,64.66V0H22.39V6.34H7.49v52h14.9v6.34Z"/><path class="cls-2" d="M417.92,0V64.66H395.53V58.32h14.9v-52h-14.9V0Z"/></g></g></svg>